<svg width="143" height="24" viewBox="0 0 143 24" fill="none" xmlns="http://www.w3.org/2000/svg">
<path d="M6.476 23.336C4.55333 23.336 3.088 22.7387 2.08 21.544C1.072 20.3493 0.568 18.7533 0.568 16.756V6.704C0.568 4.632 1.05333 3.008 2.024 1.832C2.99467 0.655998 4.47867 0.0679982 6.476 0.0679982C8.436 0.0679982 9.91067 0.665332 10.9 1.86C11.8893 3.036 12.384 4.65067 12.384 6.704V16.756C12.384 18.7533 11.88 20.3493 10.872 21.544C9.864 22.7387 8.39867 23.336 6.476 23.336ZM6.476 20.004C7.80133 20.004 8.464 18.9027 8.464 16.7V6.76C8.464 5.77067 8.324 4.968 8.044 4.352C7.78267 3.71733 7.26 3.4 6.476 3.4C5.67333 3.4 5.14133 3.71733 4.88 4.352C4.61867 4.968 4.488 5.77067 4.488 6.76V16.7C4.488 17.6147 4.628 18.3987 4.908 19.052C5.20667 19.6867 5.72933 20.004 6.476 20.004ZM18.745 4.604C18.5584 4.73467 17.877 4.94933 16.701 5.248C15.749 5.528 15.2637 5.67733 15.245 5.696V2.812C15.9917 2.55067 16.8037 2.196 17.681 1.748C18.577 1.28133 19.2304 0.805332 19.641 0.319998H22.637V23H18.745V4.604ZM27.3579 19.164H31.0539V23H27.3579V19.164Z" fill="#F6452D"/>
<path d="M41.7488 0.319998H47.3488C49.4954 0.319998 51.1381 0.758665 52.2768 1.636C53.4155 2.51333 53.9848 4.016 53.9848 6.144C53.9848 7.52533 53.7048 8.608 53.1448 9.392C52.5848 10.1573 51.7728 10.624 50.7088 10.792C53.3221 11.296 54.6288 13.1627 54.6288 16.392C54.6288 18.576 54.0968 20.228 53.0328 21.348C51.9688 22.4493 50.3914 23 48.3008 23H41.7488V0.319998ZM47.2928 9.588C48.4874 9.588 49.2995 9.32667 49.7288 8.804C50.1768 8.26267 50.4008 7.39467 50.4008 6.2C50.4008 5.04267 50.1114 4.25867 49.5328 3.848C48.9728 3.41867 48.0301 3.204 46.7048 3.204H45.8648V9.588H47.2928ZM47.4608 20.088C48.6741 20.088 49.5141 19.7987 49.9808 19.22C50.4475 18.6413 50.6808 17.6893 50.6808 16.364C50.6808 15.0013 50.4195 14.012 49.8968 13.396C49.3928 12.7613 48.5341 12.444 47.3208 12.444H45.8648V20.088H47.4608ZM64.0827 23.308C61.7307 23.308 60.0507 22.6827 59.0427 21.432C58.0347 20.1627 57.5307 18.3147 57.5307 15.888V7.376C57.5307 4.968 58.0347 3.148 59.0427 1.916C60.0507 0.683999 61.7307 0.0679982 64.0827 0.0679982C66.4161 0.0679982 68.0867 0.683999 69.0947 1.916C70.1027 3.148 70.6067 4.968 70.6067 7.376V15.888C70.6067 18.296 70.0934 20.1347 69.0667 21.404C68.0587 22.6733 66.3974 23.308 64.0827 23.308ZM64.0827 20.256C64.9974 20.256 65.6134 19.9667 65.9307 19.388C66.2481 18.8093 66.4067 17.9693 66.4067 16.868V6.424C66.4067 5.32267 66.2481 4.492 65.9307 3.932C65.6321 3.372 65.0161 3.092 64.0827 3.092C63.1494 3.092 62.5241 3.38133 62.2067 3.96C61.8894 4.52 61.7307 5.34133 61.7307 6.424V16.868C61.7307 17.9693 61.8894 18.8093 62.2067 19.388C62.5241 19.9667 63.1494 20.256 64.0827 20.256ZM80.4201 23.308C78.0681 23.308 76.3881 22.6827 75.3801 21.432C74.3721 20.1627 73.8681 18.3147 73.8681 15.888V7.376C73.8681 4.968 74.3721 3.148 75.3801 1.916C76.3881 0.683999 78.0681 0.0679982 80.4201 0.0679982C82.7534 0.0679982 84.4241 0.683999 85.4321 1.916C86.4401 3.148 86.9441 4.968 86.9441 7.376V15.888C86.9441 18.296 86.4307 20.1347 85.4041 21.404C84.3961 22.6733 82.7347 23.308 80.4201 23.308ZM80.4201 20.256C81.3347 20.256 81.9507 19.9667 82.2681 19.388C82.5854 18.8093 82.7441 17.9693 82.7441 16.868V6.424C82.7441 5.32267 82.5854 4.492 82.2681 3.932C81.9694 3.372 81.3534 3.092 80.4201 3.092C79.4867 3.092 78.8614 3.38133 78.5441 3.96C78.2267 4.52 78.0681 5.34133 78.0681 6.424V16.868C78.0681 17.9693 78.2267 18.8093 78.5441 19.388C78.8614 19.9667 79.4867 20.256 80.4201 20.256ZM90.5694 0.319998H94.6854V10.288L99.1934 0.319998H103.141L98.8014 10.428L103.589 23H99.4734L95.6934 12.696L94.6854 14.404V23H90.5694V0.319998ZM106.144 0.319998H110.232V23H106.144V0.319998ZM114.303 0.319998H117.187L122.703 13.256V0.319998H126.119V23H123.375L117.831 9.448V23H114.303V0.319998ZM135.805 23.308C133.658 23.308 132.109 22.6453 131.157 21.32C130.223 19.976 129.757 18.044 129.757 15.524V7.908C129.757 5.31333 130.242 3.36267 131.213 2.056C132.183 0.730665 133.854 0.0679982 136.225 0.0679982C138.465 0.0679982 140.07 0.627998 141.041 1.748C142.011 2.84933 142.497 4.492 142.497 6.676V7.852H138.549V6.564C138.549 5.74267 138.493 5.08933 138.381 4.604C138.287 4.11867 138.073 3.74533 137.737 3.484C137.419 3.22267 136.934 3.092 136.281 3.092C135.59 3.092 135.077 3.26 134.741 3.596C134.405 3.932 134.181 4.36133 134.069 4.884C133.975 5.40667 133.929 6.088 133.929 6.928V16.42C133.929 17.708 134.097 18.6693 134.433 19.304C134.787 19.9387 135.441 20.256 136.393 20.256C137.326 20.256 137.97 19.92 138.325 19.248C138.698 18.576 138.885 17.568 138.885 16.224V14.096H136.449V11.492H142.609V23H139.921L139.641 20.788C138.931 22.468 137.653 23.308 135.805 23.308Z" fill="#1F1F1F"/>
</svg>
