<svg width="176" height="24" viewBox="0 0 176 24" fill="none" xmlns="http://www.w3.org/2000/svg">
<path d="M6.14266 23.336C4.21999 23.336 2.75466 22.7387 1.74666 21.544C0.738657 20.3493 0.234657 18.7533 0.234657 16.756V6.704C0.234657 4.632 0.71999 3.008 1.69066 1.832C2.66132 0.655998 4.14532 0.0679982 6.14266 0.0679982C8.10266 0.0679982 9.57732 0.665332 10.5667 1.86C11.556 3.036 12.0507 4.65067 12.0507 6.704V16.756C12.0507 18.7533 11.5467 20.3493 10.5387 21.544C9.53066 22.7387 8.06532 23.336 6.14266 23.336ZM6.14266 20.004C7.46799 20.004 8.13066 18.9027 8.13066 16.7V6.76C8.13066 5.77067 7.99066 4.968 7.71066 4.352C7.44932 3.71733 6.92666 3.4 6.14266 3.4C5.33999 3.4 4.80799 3.71733 4.54666 4.352C4.28532 4.968 4.15466 5.77067 4.15466 6.76V16.7C4.15466 17.6147 4.29466 18.3987 4.57466 19.052C4.87332 19.6867 5.39599 20.004 6.14266 20.004ZM15.3317 20.256L20.9317 11.604C21.025 11.4547 21.109 11.324 21.1837 11.212C21.2584 11.1 21.3237 10.9973 21.3797 10.904C22.0517 9.85867 22.5464 8.99067 22.8637 8.3C23.181 7.60933 23.3397 6.82533 23.3397 5.948C23.3397 4.19333 22.7237 3.316 21.4917 3.316C20.6517 3.316 20.0637 3.64267 19.7277 4.296C19.3917 4.94933 19.2237 5.82667 19.2237 6.928V7.88H15.4157V6.872C15.4157 4.744 15.8917 3.08267 16.8437 1.888C17.8144 0.674665 19.3264 0.0679982 21.3797 0.0679982C23.2837 0.0679982 24.7304 0.590665 25.7197 1.636C26.709 2.66267 27.2037 4.10933 27.2037 5.976C27.2037 7.13333 26.9984 8.16 26.5877 9.056C26.1957 9.952 25.5797 11.0533 24.7397 12.36L24.4037 12.864L19.7277 19.892H26.6157V23H15.3317V20.256ZM29.9503 19.164H33.6463V23H29.9503V19.164Z" fill="#F6452D"/>
<path d="M44.4532 0.319998H48.5412V23H44.4532V0.319998ZM52.6122 0.319998H55.4962L61.0122 13.256V0.319998H64.4282V23H61.6842L56.1402 9.448V23H52.6122V0.319998ZM74.142 23.308C72.0886 23.308 70.5486 22.7293 69.522 21.572C68.514 20.4147 67.9633 18.688 67.87 16.392L71.426 15.692C71.482 17.1293 71.706 18.2307 72.098 18.996C72.5086 19.7427 73.1433 20.116 74.002 20.116C74.6366 20.116 75.1033 19.9293 75.402 19.556C75.7193 19.164 75.878 18.6413 75.878 17.988C75.878 17.092 75.6726 16.336 75.262 15.72C74.87 15.0853 74.2446 14.3947 73.386 13.648L70.53 11.156C69.6526 10.4093 68.99 9.60667 68.542 8.748C68.1126 7.88933 67.898 6.86267 67.898 5.668C67.898 3.89467 68.4113 2.52267 69.438 1.552C70.4833 0.562665 71.9206 0.0679982 73.75 0.0679982C75.71 0.0679982 77.11 0.627998 77.95 1.748C78.8086 2.84933 79.3033 4.34267 79.434 6.228L75.878 6.844C75.822 5.612 75.6446 4.688 75.346 4.072C75.066 3.43733 74.506 3.12 73.666 3.12C73.0686 3.12 72.602 3.32533 72.266 3.736C71.93 4.128 71.762 4.632 71.762 5.248C71.762 5.976 71.902 6.592 72.182 7.096C72.4806 7.58133 72.9566 8.104 73.61 8.664L76.438 11.156C77.502 12.0707 78.3326 13.0507 78.93 14.096C79.5273 15.1413 79.826 16.3547 79.826 17.736C79.826 18.8187 79.5833 19.78 79.098 20.62C78.6313 21.46 77.9686 22.1227 77.11 22.608C76.2513 23.0747 75.262 23.308 74.142 23.308ZM82.8259 0.319998H89.4899C93.3539 0.319998 95.2859 2.46667 95.2859 6.76C95.2859 10.8667 93.2606 12.92 89.2099 12.92H86.9419V23H82.8259V0.319998ZM88.5379 10.008C89.6579 10.008 90.4139 9.77467 90.8059 9.308C91.1979 8.82267 91.3939 7.964 91.3939 6.732C91.3939 5.836 91.3286 5.15467 91.1979 4.688C91.0672 4.20267 90.7966 3.83867 90.3859 3.596C89.9939 3.35333 89.3779 3.232 88.5379 3.232H86.9419V10.008H88.5379ZM98.1515 0.319998H107.672V3.232H102.268V9.756H106.524V12.64H102.268V20.172H107.728V23H98.1515V0.319998ZM116.792 23.308C114.44 23.308 112.769 22.6547 111.78 21.348C110.809 20.0227 110.324 18.156 110.324 15.748V7.656C110.324 5.17333 110.809 3.288 111.78 2C112.751 0.711998 114.421 0.0679982 116.792 0.0679982C119.013 0.0679982 120.591 0.627998 121.524 1.748C122.457 2.868 122.924 4.48267 122.924 6.592V8.496H118.948V6.536C118.948 5.73333 118.911 5.108 118.836 4.66C118.761 4.19333 118.565 3.82 118.248 3.54C117.949 3.24133 117.473 3.092 116.82 3.092C116.148 3.092 115.644 3.25067 115.308 3.568C114.972 3.86667 114.748 4.27733 114.636 4.8C114.543 5.304 114.496 5.96667 114.496 6.788V16.616C114.496 17.904 114.664 18.8373 115 19.416C115.336 19.976 115.943 20.256 116.82 20.256C117.455 20.256 117.921 20.1067 118.22 19.808C118.537 19.5093 118.733 19.1173 118.808 18.632C118.901 18.128 118.948 17.4653 118.948 16.644V14.6H122.924V16.42C122.924 18.604 122.467 20.3027 121.552 21.516C120.637 22.7107 119.051 23.308 116.792 23.308ZM128.637 3.372H125.025V0.319998H136.309V3.372H132.781V23H128.637V3.372ZM139.045 0.319998H143.133V23H139.045V0.319998ZM153.392 23.308C151.04 23.308 149.36 22.6827 148.352 21.432C147.344 20.1627 146.84 18.3147 146.84 15.888V7.376C146.84 4.968 147.344 3.148 148.352 1.916C149.36 0.683999 151.04 0.0679982 153.392 0.0679982C155.725 0.0679982 157.396 0.683999 158.404 1.916C159.412 3.148 159.916 4.968 159.916 7.376V15.888C159.916 18.296 159.403 20.1347 158.376 21.404C157.368 22.6733 155.707 23.308 153.392 23.308ZM153.392 20.256C154.307 20.256 154.923 19.9667 155.24 19.388C155.557 18.8093 155.716 17.9693 155.716 16.868V6.424C155.716 5.32267 155.557 4.492 155.24 3.932C154.941 3.372 154.325 3.092 153.392 3.092C152.459 3.092 151.833 3.38133 151.516 3.96C151.199 4.52 151.04 5.34133 151.04 6.424V16.868C151.04 17.9693 151.199 18.8093 151.516 19.388C151.833 19.9667 152.459 20.256 153.392 20.256ZM163.541 0.319998H166.425L171.941 13.256V0.319998H175.357V23H172.613L167.069 9.448V23H163.541V0.319998Z" fill="#1F1F1F"/>
</svg>
