<svg width="166" height="24" viewBox="0 0 166 24" fill="none" xmlns="http://www.w3.org/2000/svg">
<path d="M6.80931 23.336C4.88665 23.336 3.42131 22.7387 2.41331 21.544C1.40531 20.3493 0.901313 18.7533 0.901313 16.756V6.704C0.901313 4.632 1.38665 3.008 2.35731 1.832C3.32798 0.655998 4.81198 0.0679982 6.80931 0.0679982C8.76931 0.0679982 10.244 0.665332 11.2333 1.86C12.2226 3.036 12.7173 4.65067 12.7173 6.704V16.756C12.7173 18.7533 12.2133 20.3493 11.2053 21.544C10.1973 22.7387 8.73198 23.336 6.80931 23.336ZM6.80931 20.004C8.13465 20.004 8.79731 18.9027 8.79731 16.7V6.76C8.79731 5.77067 8.65731 4.968 8.37731 4.352C8.11598 3.71733 7.59331 3.4 6.80931 3.4C6.00665 3.4 5.47465 3.71733 5.21331 4.352C4.95198 4.968 4.82131 5.77067 4.82131 6.76V16.7C4.82131 17.6147 4.96131 18.3987 5.24131 19.052C5.53998 19.6867 6.06265 20.004 6.80931 20.004ZM21.8503 23.336C17.9117 23.336 15.9423 21.1707 15.9423 16.84V16.056H19.7783V16.728C19.8157 17.8853 19.9743 18.7347 20.2543 19.276C20.553 19.8173 21.0943 20.088 21.8783 20.088C22.681 20.088 23.2223 19.808 23.5023 19.248C23.7823 18.6693 23.9223 17.764 23.9223 16.532C23.9223 15.3 23.7263 14.3667 23.3343 13.732C22.9423 13.0973 22.2517 12.752 21.2623 12.696H20.6183V9.588H21.2063C22.2143 9.56933 22.9143 9.29867 23.3063 8.776C23.717 8.25333 23.9223 7.39467 23.9223 6.2C23.9223 5.17333 23.7637 4.408 23.4463 3.904C23.1477 3.4 22.6063 3.148 21.8223 3.148C21.057 3.148 20.5343 3.41867 20.2543 3.96C19.9743 4.50133 19.8157 5.304 19.7783 6.368V7.18H15.9423V6.116C15.9423 4.17467 16.4463 2.68133 17.4543 1.636C18.481 0.571999 19.937 0.0399985 21.8223 0.0399985C23.745 0.0399985 25.2103 0.562665 26.2183 1.608C27.245 2.63467 27.7583 4.10933 27.7583 6.032C27.7583 7.35733 27.4783 8.45867 26.9183 9.336C26.377 10.1947 25.6583 10.7547 24.7623 11.016C25.6957 11.3333 26.4237 11.94 26.9463 12.836C27.4877 13.7133 27.7583 14.9173 27.7583 16.448C27.7583 18.6133 27.2823 20.3027 26.3303 21.516C25.397 22.7293 23.9037 23.336 21.8503 23.336ZM30.617 19.164H34.313V23H30.617V19.164Z" fill="#F6452D"/>
<path d="M43.9439 0.319998H47.5839L50.5799 16.364L53.4079 0.319998H57.1319L52.5679 23H48.5079L43.9439 0.319998ZM62.5457 0.319998H66.9697L71.5057 23H67.6697L66.7737 17.764H62.8257L61.9017 23H58.0097L62.5457 0.319998ZM66.3257 15.132L64.7857 5.612L63.2457 15.132H66.3257ZM74.3466 0.319998H78.4626V20.172H83.9786V23H74.3466V0.319998ZM92.689 23.308C91.0464 23.308 89.7584 23.0093 88.825 22.412C87.8917 21.8147 87.2384 20.9653 86.865 19.864C86.4917 18.7627 86.305 17.3627 86.305 15.664V0.319998H90.337V16.14C90.337 17.4467 90.4864 18.4547 90.785 19.164C91.1024 19.8733 91.737 20.228 92.689 20.228C93.6597 20.228 94.2944 19.8733 94.593 19.164C94.9104 18.4547 95.069 17.4467 95.069 16.14V0.319998H99.073V15.664C99.073 17.344 98.8864 18.744 98.513 19.864C98.1397 20.9653 97.4864 21.8147 96.553 22.412C95.6197 23.0093 94.3317 23.308 92.689 23.308ZM106.171 0.319998H110.595L115.131 23H111.295L110.399 17.764H106.451L105.527 23H101.635L106.171 0.319998ZM109.951 15.132L108.411 5.612L106.871 15.132H109.951ZM119.174 3.372H115.562V0.319998H126.846V3.372H123.318V23H119.174V3.372ZM129.581 0.319998H133.669V23H129.581V0.319998ZM143.928 23.308C141.576 23.308 139.896 22.6827 138.888 21.432C137.88 20.1627 137.376 18.3147 137.376 15.888V7.376C137.376 4.968 137.88 3.148 138.888 1.916C139.896 0.683999 141.576 0.0679982 143.928 0.0679982C146.262 0.0679982 147.932 0.683999 148.94 1.916C149.948 3.148 150.452 4.968 150.452 7.376V15.888C150.452 18.296 149.939 20.1347 148.912 21.404C147.904 22.6733 146.243 23.308 143.928 23.308ZM143.928 20.256C144.843 20.256 145.459 19.9667 145.776 19.388C146.094 18.8093 146.252 17.9693 146.252 16.868V6.424C146.252 5.32267 146.094 4.492 145.776 3.932C145.478 3.372 144.862 3.092 143.928 3.092C142.995 3.092 142.37 3.38133 142.052 3.96C141.735 4.52 141.576 5.34133 141.576 6.424V16.868C141.576 17.9693 141.735 18.8093 142.052 19.388C142.37 19.9667 142.995 20.256 143.928 20.256ZM154.078 0.319998H156.962L162.478 13.256V0.319998H165.894V23H163.15L157.606 9.448V23H154.078V0.319998Z" fill="#1F1F1F"/>
</svg>
