<svg width="186" height="24" viewBox="0 0 186 24" fill="none" xmlns="http://www.w3.org/2000/svg">
<path d="M6.476 23.336C4.55333 23.336 3.088 22.7387 2.08 21.544C1.072 20.3493 0.568 18.7533 0.568 16.756V6.704C0.568 4.632 1.05333 3.008 2.024 1.832C2.99467 0.655998 4.47867 0.0679982 6.476 0.0679982C8.436 0.0679982 9.91067 0.665332 10.9 1.86C11.8893 3.036 12.384 4.65067 12.384 6.704V16.756C12.384 18.7533 11.88 20.3493 10.872 21.544C9.864 22.7387 8.39867 23.336 6.476 23.336ZM6.476 20.004C7.80133 20.004 8.464 18.9027 8.464 16.7V6.76C8.464 5.77067 8.324 4.968 8.044 4.352C7.78267 3.71733 7.26 3.4 6.476 3.4C5.67333 3.4 5.14133 3.71733 4.88 4.352C4.61867 4.968 4.488 5.77067 4.488 6.76V16.7C4.488 17.6147 4.628 18.3987 4.908 19.052C5.20667 19.6867 5.72933 20.004 6.476 20.004ZM22.217 17.428H15.413V14.124L21.321 0.319998H25.829V14.348H28.153V17.428H25.829V23H22.217V17.428ZM22.217 14.348V4.492L18.633 14.348H22.217ZM30.5024 19.164H34.1984V23H30.5024V19.164Z" fill="#F6452D"/>
<path d="M50.9973 23.308C48.6453 23.308 46.9746 22.6547 45.9853 21.348C45.0146 20.0227 44.5293 18.156 44.5293 15.748V7.656C44.5293 5.17333 45.0146 3.288 45.9853 2C46.956 0.711998 48.6266 0.0679982 50.9973 0.0679982C53.2186 0.0679982 54.796 0.627998 55.7293 1.748C56.6626 2.868 57.1293 4.48267 57.1293 6.592V8.496H53.1533V6.536C53.1533 5.73333 53.116 5.108 53.0413 4.66C52.9666 4.19333 52.7706 3.82 52.4533 3.54C52.1546 3.24133 51.6786 3.092 51.0253 3.092C50.3533 3.092 49.8493 3.25067 49.5133 3.568C49.1773 3.86667 48.9533 4.27733 48.8413 4.8C48.748 5.304 48.7013 5.96667 48.7013 6.788V16.616C48.7013 17.904 48.8693 18.8373 49.2053 19.416C49.5413 19.976 50.148 20.256 51.0253 20.256C51.66 20.256 52.1266 20.1067 52.4253 19.808C52.7426 19.5093 52.9386 19.1173 53.0133 18.632C53.1066 18.128 53.1533 17.4653 53.1533 16.644V14.6H57.1293V16.42C57.1293 18.604 56.672 20.3027 55.7573 21.516C54.8426 22.7107 53.256 23.308 50.9973 23.308ZM66.7624 23.308C64.4104 23.308 62.7304 22.6827 61.7224 21.432C60.7144 20.1627 60.2104 18.3147 60.2104 15.888V7.376C60.2104 4.968 60.7144 3.148 61.7224 1.916C62.7304 0.683999 64.4104 0.0679982 66.7624 0.0679982C69.0957 0.0679982 70.7664 0.683999 71.7744 1.916C72.7824 3.148 73.2864 4.968 73.2864 7.376V15.888C73.2864 18.296 72.7731 20.1347 71.7464 21.404C70.7384 22.6733 69.0771 23.308 66.7624 23.308ZM66.7624 20.256C67.6771 20.256 68.2931 19.9667 68.6104 19.388C68.9277 18.8093 69.0864 17.9693 69.0864 16.868V6.424C69.0864 5.32267 68.9277 4.492 68.6104 3.932C68.3117 3.372 67.6957 3.092 66.7624 3.092C65.8291 3.092 65.2037 3.38133 64.8864 3.96C64.5691 4.52 64.4104 5.34133 64.4104 6.424V16.868C64.4104 17.9693 64.5691 18.8093 64.8864 19.388C65.2037 19.9667 65.8291 20.256 66.7624 20.256ZM77.2478 0.319998H81.5318L84.7518 16.028L88.0838 0.319998H92.2558L92.6758 23H89.5958L89.2598 7.236L86.0398 23H83.5478L80.2718 7.18L79.9638 23H76.8558L77.2478 0.319998ZM96.585 0.319998H103.249C107.113 0.319998 109.045 2.46667 109.045 6.76C109.045 10.8667 107.02 12.92 102.969 12.92H100.701V23H96.585V0.319998ZM102.297 10.008C103.417 10.008 104.173 9.77467 104.565 9.308C104.957 8.82267 105.153 7.964 105.153 6.732C105.153 5.836 105.088 5.15467 104.957 4.688C104.826 4.20267 104.556 3.83867 104.145 3.596C103.753 3.35333 103.137 3.232 102.297 3.232H100.701V10.008H102.297ZM111.911 0.319998H116.027V20.172H121.543V23H111.911V0.319998ZM124.256 0.319998H133.776V3.232H128.372V9.756H132.628V12.64H128.372V20.172H133.832V23H124.256V0.319998ZM139.06 3.372H135.448V0.319998H146.732V3.372H143.204V23H139.06V3.372ZM149.468 0.319998H153.556V23H149.468V0.319998ZM163.815 23.308C161.463 23.308 159.783 22.6827 158.775 21.432C157.767 20.1627 157.263 18.3147 157.263 15.888V7.376C157.263 4.968 157.767 3.148 158.775 1.916C159.783 0.683999 161.463 0.0679982 163.815 0.0679982C166.149 0.0679982 167.819 0.683999 168.827 1.916C169.835 3.148 170.339 4.968 170.339 7.376V15.888C170.339 18.296 169.826 20.1347 168.799 21.404C167.791 22.6733 166.13 23.308 163.815 23.308ZM163.815 20.256C164.73 20.256 165.346 19.9667 165.663 19.388C165.981 18.8093 166.139 17.9693 166.139 16.868V6.424C166.139 5.32267 165.981 4.492 165.663 3.932C165.365 3.372 164.749 3.092 163.815 3.092C162.882 3.092 162.257 3.38133 161.939 3.96C161.622 4.52 161.463 5.34133 161.463 6.424V16.868C161.463 17.9693 161.622 18.8093 161.939 19.388C162.257 19.9667 162.882 20.256 163.815 20.256ZM173.965 0.319998H176.849L182.365 13.256V0.319998H185.781V23H183.037L177.493 9.448V23H173.965V0.319998Z" fill="#1F1F1F"/>
</svg>
