<svg width="14" height="14" viewBox="0 0 14 14" fill="none" xmlns="http://www.w3.org/2000/svg">
<path d="M8.49362 11.9937L12.8686 7.61874C12.95 7.53755 13.0145 7.44112 13.0585 7.33497C13.1025 7.22882 13.1252 7.11503 13.1252 7.00011C13.1252 6.8852 13.1025 6.77141 13.0585 6.66526C13.0145 6.5591 12.95 6.46268 12.8686 6.38149L8.49362 2.00649C8.41239 1.92525 8.31594 1.86081 8.2098 1.81684C8.10365 1.77287 7.98989 1.75024 7.875 1.75024C7.76011 1.75024 7.64635 1.77287 7.5402 1.81684C7.43406 1.86081 7.33761 1.92525 7.25638 2.00649C7.09231 2.17056 7.00013 2.39308 7.00013 2.62511C7.00013 2.85714 7.09231 3.07967 7.25638 3.24374L10.1378 6.12511H1.75C1.51794 6.12511 1.29538 6.2173 1.13128 6.38139C0.967187 6.54549 0.875 6.76805 0.875 7.00011C0.875 7.23218 0.967187 7.45474 1.13128 7.61883C1.29538 7.78292 1.51794 7.87511 1.75 7.87511H10.1378L7.25638 10.7565C7.17484 10.8376 7.11013 10.9339 7.06598 11.0401C7.02182 11.1463 6.99909 11.2601 6.99909 11.3751C6.99909 11.4901 7.02182 11.6039 7.06598 11.7101C7.11013 11.8163 7.17484 11.9127 7.25638 11.9937C7.33756 12.0751 7.43399 12.1396 7.54014 12.1836C7.64629 12.2276 7.76008 12.2503 7.875 12.2503C7.98992 12.2503 8.10371 12.2276 8.20986 12.1836C8.31601 12.1396 8.41244 12.0751 8.49362 11.9937Z" fill="white"/>
</svg>
